<svg width="24" height="24" viewBox="0 0 24 24" fill="none" xmlns="http://www.w3.org/2000/svg">
<path d="M3.84868 8.61721C3.70276 7.95992 3.72517 7.27644 3.91382 6.63012C4.10247 5.98381 4.45125 5.39558 4.92783 4.92C5.40442 4.44441 5.99337 4.09686 6.64008 3.90956C7.28679 3.72227 7.97032 3.70129 8.6273 3.84859C8.9889 3.28305 9.48705 2.81764 10.0758 2.49526C10.6646 2.17288 11.3251 2.00391 11.9963 2.00391C12.6676 2.00391 13.328 2.17288 13.9168 2.49526C14.5056 2.81764 15.0037 3.28305 15.3653 3.84859C16.0233 3.70065 16.708 3.72153 17.3558 3.90928C18.0035 4.09703 18.5932 4.44556 19.0701 4.92243C19.547 5.3993 19.8955 5.98904 20.0833 6.63678C20.271 7.28452 20.2919 7.96923 20.144 8.6272C20.7095 8.98881 21.1749 9.48696 21.4973 10.0757C21.8197 10.6645 21.9886 11.325 21.9886 11.9962C21.9886 12.6675 21.8197 13.3279 21.4973 13.9167C21.1749 14.5055 20.7095 15.0037 20.144 15.3653C20.2913 16.0222 20.2703 16.7058 20.083 17.3525C19.8957 17.9992 19.5481 18.5881 19.0726 19.0647C18.597 19.5413 18.0087 19.8901 17.3624 20.0787C16.7161 20.2674 16.0326 20.2898 15.3753 20.1439C15.0142 20.7116 14.5157 21.179 13.9259 21.5028C13.3361 21.8266 12.6742 21.9964 12.0013 21.9964C11.3285 21.9964 10.6665 21.8266 10.0767 21.5028C9.48697 21.179 8.98843 20.7116 8.6273 20.1439C7.97032 20.2912 7.28679 20.2702 6.64008 20.0829C5.99337 19.8956 5.40442 19.548 4.92783 19.0725C4.45125 18.5969 4.10247 18.0087 3.91382 17.3623C3.72517 16.716 3.70276 16.0325 3.84868 15.3753C3.2788 15.0146 2.80939 14.5157 2.48412 13.9249C2.15885 13.3341 1.98828 12.6706 1.98828 11.9962C1.98828 11.3218 2.15885 10.6584 2.48412 10.0676C2.80939 9.47679 3.2788 8.97786 3.84868 8.61721Z" stroke="#009FF5" stroke-width="1.99942" stroke-linecap="round" stroke-linejoin="round"/>
<path d="M8.99805 11.9965L10.9975 13.9959L14.9963 9.99707" stroke="#009FF5" stroke-width="1.99942" stroke-linecap="round" stroke-linejoin="round"/>
</svg>
